# xmcd
#
# Track frame offsets:
#	150
#	22240
#	44830
#	66747
#
# Disc length: 1165 seconds
#
# Revision: 0
# Processed by: cddbd v1.5.2PL0 Copyright (c) Steve Scherf et al.
# Submitted via: audiograbber 1.83.01
#
DISCID=41048b04
DTITLE=Rules Of Hypothalamus - Q-Samba
DYEAR=2006
DGENRE=Funk
TTITLE0=Q-Samba
TTITLE1=Streets Of Funkistan
TTITLE2=Akustik Mangas
TTITLE3=Liquid 1
EXTD=
EXTT0=
EXTT1=
EXTT2=
EXTT3=
PLAYORDER=
